<svg xmlns="http://www.w3.org/2000/svg" viewBox="0 0 360 72" width="360" height="72">
  <!-- Icon -->
  <rect x="0" y="4" width="64" height="64" rx="12" fill="#0C2340"/>
  <polyline points="8,42 8,60 32,60 32,46 40,46 40,60 56,60 56,42" fill="none" stroke="#C9952A" stroke-width="3" stroke-linejoin="round" stroke-linecap="round"/>
  <polyline points="4,42 32,16 60,42" fill="none" stroke="#C9952A" stroke-width="3" stroke-linejoin="round" stroke-linecap="round"/>
  <rect x="13" y="49" width="5" height="11" rx="1" fill="#C9952A"/>
  <rect x="21" y="44" width="5" height="16" rx="1" fill="#C9952A"/>
  <rect x="29" y="39" width="5" height="21" rx="1" fill="#C9952A"/>
  <polyline points="28,26 42,16 42,23" fill="none" stroke="#C9952A" stroke-width="2.5" stroke-linecap="round" stroke-linejoin="round"/>
  <line x1="28" y1="26" x2="42" y2="16" stroke="#C9952A" stroke-width="2.5" stroke-linecap="round"/>
  <!-- Stack text -->
  <text x="80" y="46" font-family="DM Sans, Arial Black, sans-serif" font-size="36" font-weight="700" fill="#FFFFFF" letter-spacing="-1">Stack</text>
  <!-- Bid text -->
  <text x="210" y="46" font-family="DM Sans, Arial Black, sans-serif" font-size="36" font-weight="700" fill="#C9952A" letter-spacing="-1">Bid</text>
  <!-- Tagline -->
  <text x="80" y="62" font-family="Inter, Arial, sans-serif" font-size="9.5" font-weight="500" fill="rgba(255,255,255,0.55)" letter-spacing="0.12em">AI-POWERED WHOLESALE MATERIALS ESTIMATES</text>
</svg>
